<svg xmlns="http://www.w3.org/2000/svg" viewBox="0 0 29.435 30.434"><title>polished-logo</title><path d="M641,450a12.021,12.021,0,0,1-8,8,12.021,12.021,0,0,1,8,8,12.021,12.021,0,0,1,8-8,12.021,12.021,0,0,1-8-8Z" transform="translate(-621.283 -437.283)" style="fill:none;stroke:#000;stroke-miterlimit:10"/><path d="M627,443a6.01,6.01,0,0,1-4,4,6.01,6.01,0,0,1,4,4,6.01,6.01,0,0,1,4-4,6.01,6.01,0,0,1-4-4Z" transform="translate(-621.283 -437.283)" style="fill:none;stroke:#000;stroke-miterlimit:10"/><path d="M637,439c-.019.064-.046.144-.083.236a2.94,2.94,0,0,1-.142.306,3.08,3.08,0,0,1-.217.347,3.005,3.005,0,0,1-.308.361c-.047.047-.109.105-.184.169a3,3,0,0,1-.27.2,2.843,2.843,0,0,1-.355.2A2.9,2.9,0,0,1,635,441c.064.019.144.046.236.083a2.94,2.94,0,0,1,.306.142,3.08,3.08,0,0,1,.347.217,3.005,3.005,0,0,1,.361.308c.047.047.105.109.169.184a3,3,0,0,1,.2.27,2.843,2.843,0,0,1,.2.355A2.9,2.9,0,0,1,637,443c.019-.064.046-.144.083-.236a2.94,2.94,0,0,1,.142-.306,3.08,3.08,0,0,1,.217-.347,3.005,3.005,0,0,1,.308-.361c.047-.047.109-.105.184-.169a3,3,0,0,1,.27-.2,2.843,2.843,0,0,1,.355-.2A2.9,2.9,0,0,1,639,441a2.9,2.9,0,0,1-.441-.174,2.843,2.843,0,0,1-.355-.2,3,3,0,0,1-.27-.2c-.075-.064-.137-.122-.184-.169a3.005,3.005,0,0,1-.308-.361,3.08,3.08,0,0,1-.217-.347,2.94,2.94,0,0,1-.142-.306C637.046,439.144,637.019,439.064,637,439Z" transform="translate(-621.283 -437.283)" style="fill:none;stroke:#000;stroke-miterlimit:10"/></svg>