<svg xmlns="http://www.w3.org/2000/svg" width="64" height="64" viewBox="0 0 64 64"><title>menu-icons-1</title><path d="M30,43.5l8.629-2.579,22.92-18.536a3.866,3.866,0,0,0,.555-5.494h0a3.866,3.866,0,0,0-5.445-.495L34.629,34.921Z" fill="none" stroke="#464646" stroke-linecap="round" stroke-linejoin="round" stroke-width="2"/><line x1="58.287" y1="25.023" x2="56.125" y2="22.313" fill="none" stroke="#464646" stroke-linejoin="round" stroke-width="2"/><line x1="17" y1="48" x2="6" y2="50" fill="none" stroke="#464646" stroke-linecap="round" stroke-linejoin="round" stroke-width="2"/><path d="M5.811,58.2,1,59V55a5.015,5.015,0,0,1,5-5H6a5.015,5.015,0,0,1,5,5v3a5.015,5.015,0,0,0,5,5h0a5.015,5.015,0,0,0,5-5V56.47a16,16,0,0,0-2.317-8.293L4.62,24.973A25,25,0,0,1,1,12.016V11A5.015,5.015,0,0,1,6,6H6a5.015,5.015,0,0,1,5,5v2L41,8V6a5.015,5.015,0,0,0-5-5h0L6,6" fill="none" stroke="#464646" stroke-linecap="square" stroke-linejoin="round" stroke-width="2"/><line x1="14" y1="24" x2="29" y2="21" fill="none" stroke="#464646" stroke-linecap="round" stroke-linejoin="round" stroke-width="2"/><line x1="18" y1="30" x2="32" y2="27" fill="none" stroke="#464646" stroke-linecap="round" stroke-linejoin="round" stroke-width="2"/><line x1="22" y1="36" x2="27" y2="35" fill="none" stroke="#464646" stroke-linecap="round" stroke-linejoin="round" stroke-width="2"/><path d="M49,40.048l.684,1.129A16,16,0,0,1,52,49.47v0a5.84,5.84,0,0,1-4.386,5.656L17,63" fill="none" stroke="#464646" stroke-linecap="round" stroke-linejoin="round" stroke-width="2"/><path d="M32.407,9.432a24.979,24.979,0,0,0,3.213,8.541L39.274,24" fill="none" stroke="#464646" stroke-linecap="round" stroke-linejoin="round" stroke-width="2"/></svg>