<svg xmlns="http://www.w3.org/2000/svg" width="64" height="64" viewBox="0 0 64 64"><title>menu-icons-1</title><line x1="57" y1="38" x2="63" y2="51" fill="none" stroke="#464646" stroke-linecap="round" stroke-miterlimit="10" stroke-width="2"/><polyline points="1 51 14 22 25 22" fill="none" stroke="#464646" stroke-linecap="round" stroke-linejoin="round" stroke-width="2"/><polyline points="17 30 18 28 24 28 25 30" fill="none" stroke="#464646" stroke-miterlimit="10" stroke-width="2"/><line x1="21" y1="28" x2="21" y2="34" fill="none" stroke="#464646" stroke-miterlimit="10" stroke-width="2"/><line x1="17" y1="34" x2="25" y2="34" fill="none" stroke="#464646" stroke-miterlimit="10" stroke-width="2"/><polyline points="12 26 5 26 1 51" fill="none" stroke="#464646" stroke-linecap="round" stroke-linejoin="round" stroke-width="2"/><path d="M23,56l-3.5,2.336A5.607,5.607,0,0,0,17,63h0" fill="none" stroke="#464646" stroke-linecap="round" stroke-linejoin="round" stroke-width="2"/><path d="M41,56l3.5,2.336A5.607,5.607,0,0,1,47,63h0" fill="none" stroke="#464646" stroke-linecap="round" stroke-linejoin="round" stroke-width="2"/><path d="M37,54s-1,1-5,1-5-1-5-1" fill="none" stroke="#464646" stroke-linecap="round" stroke-miterlimit="10" stroke-width="2"/><path d="M30,49.084c-4.349.377-7,1.987-7,3.916v4c0,2.209,3.477,4,9,4s9-1.791,9-4V53c0-1.234-1.085-2.337-3.005-3.071" fill="none" stroke="#464646" stroke-linecap="round" stroke-miterlimit="10" stroke-width="2"/><path d="M39,45S52.5,40.3,60,24c0,0-3.94.75-5.725-.3L56,23c7.03-2.553,7-13,7-22,0,0-20,3-27,17-1,2-2,6-1,8l-3-3s-4.307,9.524-1,19" fill="none" stroke="#464646" stroke-linecap="round" stroke-linejoin="round" stroke-width="2"/><path d="M32,55s5-25,19-39" fill="none" stroke="#464646" stroke-linecap="round" stroke-miterlimit="10" stroke-width="2"/></svg>