<svg xmlns="http://www.w3.org/2000/svg" width="64" height="64" viewBox="0 0 64 64"><title>menu-icons-1</title><path d="M58,63H5a4,4,0,0,1-4-4V30a4,4,0,0,1,4-4H17l6,5H49a4,4,0,0,1,4,4V58a5,5,0,0,0,5,5h0a5,5,0,0,0,5-5V29" fill="none" stroke="#464646" stroke-linejoin="round" stroke-width="2"/><polyline points="53 57 58 57 58 20 46 9 23 9 23 25" fill="none" stroke="#464646" stroke-linecap="square" stroke-linejoin="round" stroke-width="2"/><path d="M58,20H48a1,1,0,0,1-1-1V17" fill="none" stroke="#464646" stroke-linecap="round" stroke-linejoin="round" stroke-width="2"/><line x1="31" y1="20" x2="40" y2="20" fill="none" stroke="#464646" stroke-linecap="round" stroke-linejoin="round" stroke-width="2"/><line x1="31" y1="25" x2="47" y2="25" fill="none" stroke="#464646" stroke-linecap="round" stroke-linejoin="round" stroke-width="2"/><polyline points="6 21 6 15 23 15" fill="none" stroke="#464646" stroke-linecap="square" stroke-linejoin="round" stroke-width="2"/><polyline points="10 9 10 1 44 1 44 4" fill="none" stroke="#464646" stroke-linecap="square" stroke-linejoin="round" stroke-width="2"/></svg>