<svg xmlns="http://www.w3.org/2000/svg" viewBox="0 0 64 64"><defs><style>.a{fill:#707070;}</style></defs><title>menu-icons-3</title><path class="a" d="M23.914,63.9a1.108,1.108,0,0,1-1.109-1.109V42.9a1.108,1.108,0,0,1,1.109-1.109H40.086A1.108,1.108,0,0,1,41.2,42.9V62.281a1.109,1.109,0,0,1-2.218,0V44.005H25.023V62.791A1.109,1.109,0,0,1,23.914,63.9Z"/><path class="a" d="M12.172,21.546a1.108,1.108,0,0,1-1.109-1.109V3.827a1.108,1.108,0,0,1,1.109-1.109h8.3a1.108,1.108,0,0,1,1.109,1.109V12.5a1.109,1.109,0,1,1-2.218,0V4.936H13.281v15.5A1.109,1.109,0,0,1,12.172,21.546Z"/><path class="a" d="M62.381,32.7H54.619a1.109,1.109,0,0,1,0-2.218H59.7L32,2.775,4.3,30.478H9.381a1.109,1.109,0,1,1,0,2.218H1.619A1.109,1.109,0,0,1,.835,30.8L31.216.423a1.107,1.107,0,0,1,1.568,0L63.165,30.8a1.109,1.109,0,0,1-.784,1.893Z"/><path class="a" d="M47.353,25.905a1.106,1.106,0,0,1-.784-.325L33.905,12.916a1.109,1.109,0,0,1,1.568-1.568L48.137,24.012a1.109,1.109,0,0,1-.784,1.893Z"/><path class="a" d="M9.381,64.1a1.11,1.11,0,0,1-1.109-1.109v-31.4a1.109,1.109,0,0,1,2.218,0v31.4A1.109,1.109,0,0,1,9.381,64.1Z"/><path class="a" d="M54.619,64.1a1.109,1.109,0,0,1-1.109-1.109v-31.4a1.109,1.109,0,1,1,2.217,0v31.4A1.109,1.109,0,0,1,54.619,64.1Z"/><path class="a" d="M54.619,64.1H9.381a1.109,1.109,0,1,1,0-2.218H54.619a1.109,1.109,0,0,1,0,2.218Z"/></svg>