<svg xmlns="http://www.w3.org/2000/svg" width="64" height="64" viewBox="0 0 64 64"><title>menu-icons-4</title><path d="M32,13.069A14.724,14.724,0,0,0,17.276,27.793c0,10.517,8.414,13.673,8.414,23.138" fill="none" stroke="#1c1c1c" stroke-linecap="round" stroke-miterlimit="10" stroke-width="2"/><path d="M32,13.069A14.724,14.724,0,0,1,46.724,27.793c0,10.517-8.414,12.621-8.414,23.138" fill="none" stroke="#1c1c1c" stroke-linecap="round" stroke-miterlimit="10" stroke-width="2"/><line x1="38.31" y1="59.345" x2="38.31" y2="50.931" fill="none" stroke="#1c1c1c" stroke-linecap="round" stroke-miterlimit="10" stroke-width="2"/><path d="M25.69,50.931v8.414C25.69,60.507,29.9,62.5,32,62.5s6.31-1.993,6.31-3.155" fill="none" stroke="#1c1c1c" stroke-linecap="round" stroke-miterlimit="10" stroke-width="2"/><line x1="32" y1="1.5" x2="32" y2="6.759" fill="none" stroke="#1c1c1c" stroke-linecap="round" stroke-miterlimit="10" stroke-width="2"/><line x1="13.408" y1="9.201" x2="17.126" y2="12.919" fill="none" stroke="#1c1c1c" stroke-linecap="round" stroke-miterlimit="10" stroke-width="2"/><line x1="5.707" y1="27.793" x2="10.966" y2="27.793" fill="none" stroke="#1c1c1c" stroke-linecap="round" stroke-miterlimit="10" stroke-width="2"/><line x1="13.408" y1="46.385" x2="17.126" y2="42.667" fill="none" stroke="#1c1c1c" stroke-linecap="round" stroke-miterlimit="10" stroke-width="2"/><line x1="50.592" y1="46.385" x2="46.874" y2="42.667" fill="none" stroke="#1c1c1c" stroke-linecap="round" stroke-miterlimit="10" stroke-width="2"/><line x1="58.293" y1="27.793" x2="53.034" y2="27.793" fill="none" stroke="#1c1c1c" stroke-linecap="round" stroke-miterlimit="10" stroke-width="2"/><line x1="50.592" y1="9.201" x2="46.874" y2="12.919" fill="none" stroke="#1c1c1c" stroke-linecap="round" stroke-miterlimit="10" stroke-width="2"/><path d="M42.517,27.793a10.515,10.515,0,0,0-5.48-9.234" fill="none" stroke="#1c1c1c" stroke-linecap="round" stroke-miterlimit="10" stroke-width="2"/><line x1="42.517" y1="27.793" x2="42.517" y2="27.793" fill="none" stroke="#1c1c1c" stroke-linecap="round" stroke-miterlimit="10" stroke-width="2"/><line x1="23.95" y1="8.36" x2="23.145" y2="6.416" fill="none" stroke="#1c1c1c" stroke-linecap="round" stroke-miterlimit="10" stroke-width="2"/><line x1="12.567" y1="19.744" x2="10.623" y2="18.939" fill="none" stroke="#1c1c1c" stroke-linecap="round" stroke-miterlimit="10" stroke-width="2"/><line x1="12.567" y1="35.843" x2="10.623" y2="36.648" fill="none" stroke="#1c1c1c" stroke-linecap="round" stroke-miterlimit="10" stroke-width="2"/><line x1="51.433" y1="35.843" x2="53.377" y2="36.648" fill="none" stroke="#1c1c1c" stroke-linecap="round" stroke-miterlimit="10" stroke-width="2"/><line x1="51.433" y1="19.744" x2="53.377" y2="18.939" fill="none" stroke="#1c1c1c" stroke-linecap="round" stroke-miterlimit="10" stroke-width="2"/><line x1="40.05" y1="8.36" x2="40.855" y2="6.416" fill="none" stroke="#1c1c1c" stroke-linecap="round" stroke-miterlimit="10" stroke-width="2"/><path d="M29.874,52.9c-.352-.043-.709-.082-1.029-.144" fill="none" stroke="#1c1c1c" stroke-linecap="round" stroke-miterlimit="10" stroke-width="2"/><path d="M38.311,50.931c0,1.162-2.826,2.1-6.311,2.1a17.52,17.52,0,0,1-2.126-.139" fill="none" stroke="#1c1c1c" stroke-linecap="round" stroke-miterlimit="10" stroke-width="2"/><path d="M38.311,55.138c0,1.162-2.826,2.1-6.311,2.1a17.52,17.52,0,0,1-2.126-.139" fill="none" stroke="#1c1c1c" stroke-linecap="round" stroke-miterlimit="10" stroke-width="2"/><path d="M28.845,56.958c.32.061.677.1,1.029.144" fill="none" stroke="#1c1c1c" stroke-linecap="round" stroke-miterlimit="10" stroke-width="2"/></svg>