<svg xmlns="http://www.w3.org/2000/svg" width="64" height="64" viewBox="0 0 64 64"><title>menu-icons-1</title><line x1="42" y1="1" x2="42" y2="3" fill="none" stroke="#464646" stroke-linecap="round" stroke-linejoin="round" stroke-width="2"/><line x1="58.914" y1="9.737" x2="60.385" y2="8.322" fill="none" stroke="#464646" stroke-linecap="round" stroke-linejoin="round" stroke-width="2"/><line x1="51.154" y1="4.751" x2="51.95" y2="2.903" fill="none" stroke="#464646" stroke-linecap="round" stroke-linejoin="round" stroke-width="2"/><line x1="32.846" y1="4.751" x2="32.05" y2="2.903" fill="none" stroke="#464646" stroke-linecap="round" stroke-linejoin="round" stroke-width="2"/><path d="M34,50s-.786-4.147-2.368-6.226C28,39,24,33.146,24,27a18,18,0,0,1,36,0l3,9H58v6a4,4,0,0,1-4,4H52.342a3,3,0,0,0-2.91,2.272h0A14.465,14.465,0,0,0,49,51.781V54H34" fill="none" stroke="#464646" stroke-linecap="round" stroke-linejoin="round" stroke-width="2"/><path d="M39,44c0-6,0-12-4-16H49c-4,4-4,10-4,16" fill="none" stroke="#464646" stroke-linecap="round" stroke-linejoin="round" stroke-width="2"/><path d="M34,58h0a5,5,0,0,0,5,5h5a5,5,0,0,0,5-5h0" fill="none" stroke="#464646" stroke-linecap="square" stroke-linejoin="round" stroke-width="2"/><path d="M28,9H25a2,2,0,0,0-2,2v.84a2,2,0,0,1-1.235,1.847l-5.134,2.127a2,2,0,0,1-2.179-.433l-.594-.594a2,2,0,0,0-2.829,0L6.787,19.03a2,2,0,0,0,0,2.828l1.066,1.066a1,1,0,0,1,.217,1.09L5.687,29.765A2,2,0,0,1,3.84,31H3a2,2,0,0,0-2,2v6a2,2,0,0,0,2,2h.84a2,2,0,0,1,1.847,1.235l2.127,5.134a2,2,0,0,1-.433,2.179l-.594.594a2,2,0,0,0,0,2.829l4.242,4.242a2,2,0,0,0,2.829,0l.594-.594a2,2,0,0,1,2.179-.433l5.134,2.127A2,2,0,0,1,23,60.16V61a2,2,0,0,0,2,2h4" fill="none" stroke="#464646" stroke-linecap="square" stroke-linejoin="round" stroke-width="2"/><path d="M17.509,28A14,14,0,0,0,29,50h5" fill="none" stroke="#464646" stroke-linecap="round" stroke-linejoin="round" stroke-width="2"/></svg>