<svg xmlns="http://www.w3.org/2000/svg" viewBox="0 0 64 64"><defs><style>.a{fill:#707070;}</style></defs><title>menu-icons-3</title><path class="a" d="M43.8,64H20.2A11.252,11.252,0,0,1,8.965,52.761V31.207A11.252,11.252,0,0,1,20.2,19.968H43.8A11.252,11.252,0,0,1,55.035,31.207V52.761A11.252,11.252,0,0,1,43.8,64ZM20.2,22.006a9.212,9.212,0,0,0-9.2,9.2V52.761a9.211,9.211,0,0,0,9.2,9.2H43.8a9.211,9.211,0,0,0,9.2-9.2V31.207a9.212,9.212,0,0,0-9.2-9.2Z"/><path class="a" d="M34.8,43.041a1.019,1.019,0,0,1-.529-1.89,4.384,4.384,0,1,0-4.554-.011,1.019,1.019,0,0,1-1.065,1.738,6.421,6.421,0,1,1,6.676.015A1.02,1.02,0,0,1,34.8,43.041Z"/><path class="a" d="M32,52.8H26.6a1.019,1.019,0,0,1-.982-1.292l2.7-9.7a1.019,1.019,0,1,1,1.964.546l-2.342,8.412H32A1.019,1.019,0,0,1,32,52.8Z"/><path class="a" d="M37.4,52.8H32a1.019,1.019,0,0,1,0-2.038h4.061l-2.342-8.411a1.019,1.019,0,1,1,1.963-.547l2.7,9.7A1.019,1.019,0,0,1,37.4,52.8Z"/><path class="a" d="M48.743,22.507a1.019,1.019,0,0,1-1.019-1.019v-7.9C47.724,7.221,40.67,2.038,32,2.038S16.276,7.221,16.276,13.591v7.476a1.019,1.019,0,1,1-2.038,0V13.591C14.238,6.1,22.206,0,32,0S49.762,6.1,49.762,13.591v7.9A1.019,1.019,0,0,1,48.743,22.507Z"/></svg>