<svg xmlns="http://www.w3.org/2000/svg" width="64" height="64" viewBox="0 0 64 64"><title>menu-icons-1</title><path d="M28,28l13.079,4.594L61.828,53.343a4,4,0,0,1,0,5.657L59,61.828a4,4,0,0,1-5.657,0L32.594,41.079Z" fill="none" stroke="#464646" stroke-linecap="round" stroke-linejoin="round" stroke-width="2"/><line x1="30.7" y1="29.442" x2="29.286" y2="30.856" fill="none" stroke="#464646" stroke-linecap="round" stroke-linejoin="round" stroke-width="2"/><line x1="37" y1="37" x2="53.515" y2="53.515" fill="none" stroke="#464646" stroke-linecap="round" stroke-linejoin="round" stroke-width="2"/><line x1="54.929" y1="52.101" x2="49.272" y2="57.757" fill="none" stroke="#464646" stroke-linecap="round" stroke-linejoin="round" stroke-width="2"/><line x1="38.251" y1="35.423" x2="32.594" y2="41.08" fill="none" stroke="#464646" stroke-linecap="round" stroke-linejoin="round" stroke-width="2"/><path d="M9,9c0,1.657-1.791,3-4,3S1,10.657,1,9,2.791,6,5,6" fill="none" stroke="#464646" stroke-linecap="round" stroke-linejoin="round" stroke-width="2"/><path d="M9,20c0,1.657-1.791,3-4,3s-4-1.343-4-3,1.791-3,4-3" fill="none" stroke="#464646" stroke-linecap="round" stroke-linejoin="round" stroke-width="2"/><path d="M9,31c0,1.657-1.791,3-4,3s-4-1.343-4-3,1.791-3,4-3" fill="none" stroke="#464646" stroke-linecap="round" stroke-linejoin="round" stroke-width="2"/><path d="M9,42c0,1.657-1.791,3-4,3s-4-1.343-4-3,1.791-3,4-3" fill="none" stroke="#464646" stroke-linecap="round" stroke-linejoin="round" stroke-width="2"/><path d="M9,53c0,1.657-1.791,3-4,3s-4-1.343-4-3,1.791-3,4-3" fill="none" stroke="#464646" stroke-linecap="round" stroke-linejoin="round" stroke-width="2"/><polyline points="5 1 51 1 51 30" fill="none" stroke="#464646" stroke-linejoin="round" stroke-width="2"/><line x1="5" y1="18" x2="5" y2="12" fill="none" stroke="#464646" stroke-linecap="round" stroke-linejoin="round" stroke-width="2"/><line x1="5" y1="7" x2="5" y2="1" fill="none" stroke="#464646" stroke-linecap="round" stroke-linejoin="round" stroke-width="2"/><line x1="5" y1="29" x2="5" y2="23" fill="none" stroke="#464646" stroke-linecap="round" stroke-linejoin="round" stroke-width="2"/><line x1="5" y1="40" x2="5" y2="34" fill="none" stroke="#464646" stroke-linecap="round" stroke-linejoin="round" stroke-width="2"/><line x1="5" y1="51" x2="5" y2="45" fill="none" stroke="#464646" stroke-linecap="round" stroke-linejoin="round" stroke-width="2"/><polyline points="42 61 5 61 5 56" fill="none" stroke="#464646" stroke-linejoin="round" stroke-width="2"/><line x1="14" y1="28" x2="16" y2="28" fill="none" stroke="#464646" stroke-linejoin="round" stroke-width="2"/><line x1="14" y1="32" x2="16" y2="32" fill="none" stroke="#464646" stroke-linejoin="round" stroke-width="2"/><line x1="14" y1="36" x2="16" y2="36" fill="none" stroke="#464646" stroke-linejoin="round" stroke-width="2"/><line x1="18" y1="36" x2="20" y2="36" fill="none" stroke="#464646" stroke-linejoin="round" stroke-width="2"/><line x1="22" y1="36" x2="24" y2="36" fill="none" stroke="#464646" stroke-linejoin="round" stroke-width="2"/><line x1="22" y1="32" x2="24" y2="32" fill="none" stroke="#464646" stroke-linejoin="round" stroke-width="2"/><line x1="18" y1="28" x2="20" y2="28" fill="none" stroke="#464646" stroke-linejoin="round" stroke-width="2"/><line x1="22" y1="28" x2="24" y2="28" fill="none" stroke="#464646" stroke-linejoin="round" stroke-width="2"/><rect x="15" y="15" width="27" height="7" stroke-width="2" stroke="#464646" stroke-linecap="square" stroke-linejoin="round" fill="none"/></svg>