<svg xmlns="http://www.w3.org/2000/svg" width="64" height="64" viewBox="0 0 64 64"><title>menu-icons-1</title><path d="M1,36.967a14,14,0,0,1,14,14,8.847,8.847,0,0,1,3-2.139" fill="none" stroke="#464646" stroke-linecap="round" stroke-linejoin="round" stroke-width="2"/><path d="M63,36.967a14,14,0,0,0-14,14,8.86,8.86,0,0,0-3-2.138" fill="none" stroke="#464646" stroke-linecap="round" stroke-linejoin="round" stroke-width="2"/><path d="M22,60.967a4.985,4.985,0,0,0-8.4-3.65A9.008,9.008,0,0,0,1,51.9" fill="none" stroke="#464646" stroke-linecap="round" stroke-linejoin="round" stroke-width="2"/><path d="M42,60.967a4.985,4.985,0,0,1,8.4-3.65A9.008,9.008,0,0,1,63,51.9" fill="none" stroke="#464646" stroke-linecap="round" stroke-linejoin="round" stroke-width="2"/><path d="M21.088,62.966a12.006,12.006,0,0,1,21.821-.006" fill="none" stroke="#464646" stroke-linecap="round" stroke-linejoin="round" stroke-width="2"/><ellipse cx="32" cy="20.466" rx="5" ry="4.5" fill="none" stroke="#464646" stroke-linecap="round" stroke-linejoin="round" stroke-width="2"/><line x1="35" y1="47.966" x2="36" y2="44.966" fill="none" stroke="#464646" stroke-linecap="round" stroke-linejoin="round" stroke-width="2"/><line x1="28" y1="44.966" x2="29" y2="47.966" fill="none" stroke="#464646" stroke-linecap="round" stroke-linejoin="round" stroke-width="2"/><path d="M36.1,2.782l-1.263-.868a5,5,0,0,0-5.664,0l-1.263.868a20,20,0,0,0-7.877,22.057L25,41.966s2,3,7,3,7-3,7-3l4.972-17.127A20,20,0,0,0,36.1,2.782Z" fill="none" stroke="#464646" stroke-linecap="round" stroke-linejoin="round" stroke-width="2"/><path d="M21.023,28.269l-5.06,4.825a3,3,0,0,0-.3,4.013L21,43.966" fill="none" stroke="#464646" stroke-linecap="round" stroke-linejoin="round" stroke-width="2"/><path d="M42.977,28.269l5.06,4.825a3,3,0,0,1,.3,4.013L43,43.966" fill="none" stroke="#464646" stroke-linecap="round" stroke-linejoin="round" stroke-width="2"/><path d="M29,6.966a10.468,10.468,0,0,0,2.379.42,8.936,8.936,0,0,0,6.14-1.994A5.866,5.866,0,0,0,38,4.966" fill="none" stroke="#464646" stroke-linecap="round" stroke-linejoin="round" stroke-width="2"/></svg>