<svg xmlns="http://www.w3.org/2000/svg" width="64" height="64" viewBox="0 0 64 64"><title>menu-icons-1</title><path d="M8,1H49a7,7,0,0,1,7,7v6" fill="none" stroke="#464646" stroke-linejoin="round" stroke-width="2"/><path d="M22,63H56a7.021,7.021,0,0,0,7-7H29a7.021,7.021,0,0,1-7,7h0a7.021,7.021,0,0,1-7-7V8A7.021,7.021,0,0,0,8,1H8A7.021,7.021,0,0,0,1,8H7" fill="none" stroke="#464646" stroke-linecap="square" stroke-linejoin="round" stroke-width="2"/><circle cx="43" cy="30" r="15" fill="none" stroke="#464646" stroke-linecap="round" stroke-linejoin="round" stroke-width="2"/><path d="M56.843,37.139l3.787,3.787a5.127,5.127,0,0,1-7.25,7.25L49.593,44.39" fill="none" stroke="#464646" stroke-linecap="square" stroke-linejoin="round" stroke-width="2"/><line x1="36" y1="21" x2="44" y2="21" fill="none" stroke="#464646" stroke-linecap="round" stroke-linejoin="round" stroke-width="2"/><line x1="32" y1="30" x2="44" y2="30" fill="none" stroke="#464646" stroke-linecap="round" stroke-linejoin="round" stroke-width="2"/><line x1="36" y1="39" x2="44" y2="39" fill="none" stroke="#464646" stroke-linecap="round" stroke-linejoin="round" stroke-width="2"/><line x1="22" y1="23" x2="29" y2="23" fill="none" stroke="#464646" stroke-linecap="round" stroke-linejoin="round" stroke-width="2"/><line x1="22" y1="30" x2="27" y2="30" fill="none" stroke="#464646" stroke-linecap="round" stroke-linejoin="round" stroke-width="2"/><line x1="22" y1="37" x2="29" y2="37" fill="none" stroke="#464646" stroke-linecap="round" stroke-linejoin="round" stroke-width="2"/></svg>