<svg xmlns="http://www.w3.org/2000/svg" width="64" height="64" viewBox="0 0 64 64"><title>menu-icons-1</title><path d="M63,42V3a2,2,0,0,0-2-2H3A2,2,0,0,0,1,3V51a2,2,0,0,0,2,2H22" fill="none" stroke="#464646" stroke-linecap="square" stroke-linejoin="round" stroke-width="2"/><line x1="1" y1="11" x2="63" y2="11" fill="none" stroke="#464646" stroke-linecap="round" stroke-linejoin="round" stroke-width="2"/><polyline points="24 19 29 24 24 29" fill="none" stroke="#464646" stroke-linecap="round" stroke-linejoin="round" stroke-width="2"/><polyline points="13 19 8 24 13 29" fill="none" stroke="#464646" stroke-linecap="round" stroke-linejoin="round" stroke-width="2"/><line x1="20" y1="19" x2="17" y2="29" fill="none" stroke="#464646" stroke-linecap="round" stroke-linejoin="round" stroke-width="2"/><line x1="6" y1="6" x2="8" y2="6" fill="none" stroke="#464646" stroke-linejoin="round" stroke-width="2"/><line x1="11" y1="6" x2="13" y2="6" fill="none" stroke="#464646" stroke-linejoin="round" stroke-width="2"/><line x1="16" y1="6" x2="18" y2="6" fill="none" stroke="#464646" stroke-linejoin="round" stroke-width="2"/><circle cx="43" cy="43" r="14" fill="none" stroke="#464646" stroke-linecap="square" stroke-linejoin="round" stroke-width="2"/><path d="M59.05,52.05l2.5,2.5a4.95,4.95,0,0,1,0,7h0a4.95,4.95,0,0,1-7,0l-5.5-5.5" fill="none" stroke="#464646" stroke-linecap="round" stroke-linejoin="round" stroke-width="2"/></svg>