<svg xmlns="http://www.w3.org/2000/svg" viewBox="0 0 64 64"><defs><style>.a{fill:#707070;}</style></defs><title>menu-icons-3</title><path class="a" d="M14.9,48.446a.958.958,0,0,1-.71-.314A24.038,24.038,0,0,1,24.479,9.17a.956.956,0,1,1,.6,1.816,22.125,22.125,0,0,0-9.473,35.861.957.957,0,0,1-.708,1.6Z"/><path class="a" d="M32,56.031a24.45,24.45,0,0,1-2.758-.156.957.957,0,1,1,.217-1.9A22.48,22.48,0,0,0,32,54.119,22.119,22.119,0,0,0,46.069,14.933a.957.957,0,1,1,1.218-1.476A24.032,24.032,0,0,1,32,56.031Z"/><path class="a" d="M35.233,50.233a.956.956,0,0,1-.191-1.893,15.4,15.4,0,0,0,10.24-7.416.957.957,0,1,1,1.659.953,17.313,17.313,0,0,1-11.515,8.337A.971.971,0,0,1,35.233,50.233Z"/><path class="a" d="M14.9,64a.956.956,0,0,1-.891-1.3l10.03-25.769h-5.41a.957.957,0,0,1-.872-1.348L33.478.565A.956.956,0,0,1,34.35,0H49.1a.957.957,0,0,1,.831,1.431l-12.8,22.4H45.05a.957.957,0,0,1,.751,1.549L15.649,63.636A.957.957,0,0,1,14.9,64ZM20.1,35.015h5.331a.956.956,0,0,1,.891,1.3l-8.212,21.1L43.078,25.743H35.485a.957.957,0,0,1-.83-1.431l12.8-22.4H34.969Z"/></svg>