<svg xmlns="http://www.w3.org/2000/svg" width="64" height="64" viewBox="0 0 64 64"><title>menu-icons-4</title><polyline points="56.8 47.5 32 63 7.2 47.5" fill="none" stroke="#1c1c1c" stroke-linecap="round" stroke-linejoin="round" stroke-width="2"/><polyline points="56.8 16.5 32 1 7.2 16.5" fill="none" stroke="#1c1c1c" stroke-linecap="round" stroke-linejoin="round" stroke-width="2"/><path d="M32,17.533,20.427,24.767" fill="none" stroke="#1c1c1c" stroke-linecap="round" stroke-linejoin="round" stroke-width="2"/><line x1="43.573" y1="24.767" x2="32" y2="17.533" fill="none" stroke="#1c1c1c" stroke-linecap="round" stroke-linejoin="round" stroke-width="2"/><path d="M32,32,20.633,24.9" fill="none" stroke="#1c1c1c" stroke-linecap="round" stroke-linejoin="round" stroke-width="2"/><line x1="43.367" y1="24.896" x2="32" y2="32" fill="none" stroke="#1c1c1c" stroke-linecap="round" stroke-linejoin="round" stroke-width="2"/><path d="M20.427,24.767l.206.129" fill="none" stroke="#1c1c1c" stroke-linecap="round" stroke-linejoin="round" stroke-width="2"/><line x1="43.573" y1="24.767" x2="43.367" y2="24.896" fill="none" stroke="#1c1c1c" stroke-linecap="round" stroke-linejoin="round" stroke-width="2"/><line x1="32" y1="46.467" x2="43.573" y2="39.233" fill="none" stroke="#1c1c1c" stroke-linecap="round" stroke-linejoin="round" stroke-width="2"/><path d="M32,46.467,20.427,39.233" fill="none" stroke="#1c1c1c" stroke-linecap="round" stroke-linejoin="round" stroke-width="2"/><path d="M7.2,47.5l13.227-8.267" fill="none" stroke="#1c1c1c" stroke-linecap="round" stroke-linejoin="round" stroke-width="2"/><line x1="43.573" y1="39.233" x2="43.367" y2="39.104" fill="none" stroke="#1c1c1c" stroke-linecap="round" stroke-linejoin="round" stroke-width="2"/><path d="M20.633,39.1l-.206.129" fill="none" stroke="#1c1c1c" stroke-linecap="round" stroke-linejoin="round" stroke-width="2"/><line x1="43.573" y1="39.233" x2="56.8" y2="47.5" fill="none" stroke="#1c1c1c" stroke-linecap="round" stroke-linejoin="round" stroke-width="2"/><line x1="7.2" y1="30.967" x2="7.2" y2="33.033" fill="none" stroke="#1c1c1c" stroke-linecap="round" stroke-linejoin="round" stroke-width="2"/><line x1="7.2" y1="16.5" x2="7.2" y2="30.967" fill="none" stroke="#1c1c1c" stroke-linecap="round" stroke-linejoin="round" stroke-width="2"/><line x1="7.2" y1="47.5" x2="7.2" y2="33.033" fill="none" stroke="#1c1c1c" stroke-linecap="round" stroke-linejoin="round" stroke-width="2"/><line x1="56.8" y1="16.5" x2="56.8" y2="30.967" fill="none" stroke="#1c1c1c" stroke-linecap="round" stroke-linejoin="round" stroke-width="2"/><line x1="56.8" y1="30.967" x2="56.8" y2="33.033" fill="none" stroke="#1c1c1c" stroke-linecap="round" stroke-linejoin="round" stroke-width="2"/><line x1="56.8" y1="47.5" x2="56.8" y2="33.033" fill="none" stroke="#1c1c1c" stroke-linecap="round" stroke-linejoin="round" stroke-width="2"/><line x1="20.633" y1="24.767" x2="20.633" y2="24.896" fill="none" stroke="#1c1c1c" stroke-linecap="round" stroke-linejoin="round" stroke-width="2"/><line x1="20.633" y1="39.233" x2="20.633" y2="39.104" fill="none" stroke="#1c1c1c" stroke-linecap="round" stroke-linejoin="round" stroke-width="2"/><line x1="20.633" y1="39.104" x2="20.633" y2="29.933" fill="none" stroke="#1c1c1c" stroke-linecap="round" stroke-linejoin="round" stroke-width="2"/><line x1="43.367" y1="39.104" x2="43.367" y2="39.233" fill="none" stroke="#1c1c1c" stroke-linecap="round" stroke-linejoin="round" stroke-width="2"/><line x1="43.367" y1="24.767" x2="43.367" y2="24.896" fill="none" stroke="#1c1c1c" stroke-linecap="round" stroke-linejoin="round" stroke-width="2"/><line x1="43.367" y1="39.104" x2="43.367" y2="24.896" fill="none" stroke="#1c1c1c" stroke-linecap="round" stroke-linejoin="round" stroke-width="2"/><line x1="32" y1="46.467" x2="32" y2="32" fill="none" stroke="#1c1c1c" stroke-linecap="round" stroke-linejoin="round" stroke-width="2"/><line x1="32" y1="46.467" x2="32" y2="56.8" fill="none" stroke="#1c1c1c" stroke-linecap="round" stroke-linejoin="round" stroke-width="2"/><line x1="32" y1="6.167" x2="32" y2="17.533" fill="none" stroke="#1c1c1c" stroke-linecap="round" stroke-linejoin="round" stroke-width="2"/><path d="M20.427,24.767l-9.094-5.684" fill="none" stroke="#1c1c1c" stroke-linecap="round" stroke-linejoin="round" stroke-width="2"/><line x1="52.667" y1="19.083" x2="43.573" y2="24.767" fill="none" stroke="#1c1c1c" stroke-linecap="round" stroke-linejoin="round" stroke-width="2"/><line x1="56.8" y1="16.5" x2="52.667" y2="19.083" fill="none" stroke="#1c1c1c" stroke-linecap="round" stroke-linejoin="round" stroke-width="2"/></svg>