<svg xmlns="http://www.w3.org/2000/svg" width="64" height="64" viewBox="0 0 64 64"><title>menu-icons-4</title><path d="M29,11.9l2-3.464S32,6.7,35.464,8.7s2.464,3.732,2.464,3.732l-2,3.464" fill="none" stroke="#1c1c1c" stroke-linecap="round" stroke-linejoin="round" stroke-width="2"/><polyline points="32.41 21.988 35.928 15.895 29 11.895 25.066 18.708" fill="none" stroke="#1c1c1c" stroke-linecap="round" stroke-linejoin="round" stroke-width="2"/><line x1="19.124" y1="45" x2="17" y2="48.679" fill="none" stroke="#1c1c1c" stroke-linecap="round" stroke-linejoin="round" stroke-width="2"/><line x1="24.321" y1="36" x2="32.41" y2="21.988" fill="none" stroke="#1c1c1c" stroke-linecap="round" stroke-linejoin="round" stroke-width="2"/><line x1="7" y1="50" x2="10.002" y2="44.8" fill="none" stroke="#1c1c1c" stroke-linecap="round" stroke-linejoin="round" stroke-width="2"/><polyline points="25.066 18.708 17 32.679 15.083 36" fill="none" stroke="#1c1c1c" stroke-linecap="round" stroke-linejoin="round" stroke-width="2"/><line x1="13.928" y1="54" x2="17" y2="48.679" fill="none" stroke="#1c1c1c" stroke-linecap="round" stroke-linejoin="round" stroke-width="2"/><line x1="7" y1="50" x2="13.928" y2="54" fill="none" stroke="#1c1c1c" stroke-linecap="round" stroke-linejoin="round" stroke-width="2"/><polyline points="7 50 6.964 58.062 13.928 54" fill="none" stroke="#1c1c1c" stroke-linecap="round" stroke-linejoin="round" stroke-width="2"/><line x1="33.928" y1="19.359" x2="27.866" y2="15.859" fill="none" stroke="#1c1c1c" stroke-linecap="round" stroke-linejoin="round" stroke-width="2"/><path d="M10,44.8a16.82,16.82,0,0,0,3,.2h1.506" fill="none" stroke="#1c1c1c" stroke-linecap="round" stroke-linejoin="round" stroke-width="2"/><path d="M15.083,36H19.7" fill="none" stroke="#1c1c1c" stroke-linecap="round" stroke-linejoin="round" stroke-width="2"/><path d="M14.506,45H17" fill="none" stroke="#1c1c1c" stroke-linecap="round" stroke-linejoin="round" stroke-width="2"/><path d="M19.7,36h4.619A18.279,18.279,0,0,1,32,34" fill="none" stroke="#1c1c1c" stroke-linecap="round" stroke-linejoin="round" stroke-width="2"/><path d="M10,44.8c-1.575-.291-3-1.009-3-2.8,0-4,5-6,8-6h.083" fill="none" stroke="#1c1c1c" stroke-linecap="round" stroke-linejoin="round" stroke-width="2"/><path d="M19.808,45H23" fill="none" stroke="#1c1c1c" stroke-linecap="round" stroke-linejoin="round" stroke-width="2"/><path d="M28.894,46.454A12.793,12.793,0,0,1,25,45H23" fill="none" stroke="#1c1c1c" stroke-linecap="round" stroke-linejoin="round" stroke-width="2"/><path d="M19.124,45h.684" fill="none" stroke="#1c1c1c" stroke-linecap="round" stroke-linejoin="round" stroke-width="2"/><path d="M19.124,45H17" fill="none" stroke="#1c1c1c" stroke-linecap="round" stroke-linejoin="round" stroke-width="2"/><path d="M28.894,46.454A22.844,22.844,0,0,0,34,47c6,0,9-2,9-2h.979" fill="none" stroke="#1c1c1c" stroke-linecap="round" stroke-linejoin="round" stroke-width="2"/><path d="M33,21c5.672,3.148,10,6,10,6h6V49H60" fill="none" stroke="#1c1c1c" stroke-linecap="round" stroke-linejoin="round" stroke-width="2"/><path d="M25.345,18.225a18.805,18.805,0,0,0-4.068-.616c-3.32,0-4.872,2.346-7.292,5.2C8.666,29.094,3.453,39.736,1.657,43.57a1.993,1.993,0,0,0,.7,2.511C4.058,47.2,6.982,48.364,9,45" fill="none" stroke="#1c1c1c" stroke-linecap="round" stroke-linejoin="round" stroke-width="2"/><path d="M23,48.192V49c0,2.421-2.2,3.01-3.933,3.1A1.988,1.988,0,0,1,17,50.1v-1.42" fill="none" stroke="#1c1c1c" stroke-linecap="round" stroke-linejoin="round" stroke-width="2"/><path d="M28.894,46.454a4.572,4.572,0,0,1-1.413,3.221,2,2,0,0,1-2.914.085L23,48.192" fill="none" stroke="#1c1c1c" stroke-linecap="round" stroke-linejoin="round" stroke-width="2"/><line x1="49" y1="27" x2="60" y2="27" fill="none" stroke="#1c1c1c" stroke-linecap="round" stroke-linejoin="round" stroke-width="2"/><line x1="53" y1="45" x2="54" y2="45" fill="none" stroke="#1c1c1c" stroke-linecap="round" stroke-linejoin="round" stroke-width="2"/></svg>